<svg id="Layer_1" enable-background="new 0 0 512 512" height="512" viewBox="0 0 512 512" width="512" xmlns="http://www.w3.org/2000/svg"><g><g><g><path d="m456 392h-432v-208c0-17.673 14.327-32 32-32h368c17.673 0 32 14.327 32 32z" fill="#463c4b"/></g><g><path d="m424 392h-400v-208c0-17.673 14.327-32 32-32h336c17.673 0 32 14.327 32 32z" fill="#555a6e"/></g><g><path d="m56 432h368c17.673 0 32-14.327 32-32v-8h-432v8c0 17.673 14.327 32 32 32z" fill="#a5c3dc"/></g><g><path d="m392 432h-336c-17.673 0-32-14.327-32-32v-8h400v8c0 17.673-14.327 32-32 32z" fill="#d7e6f0"/></g><g><path d="m192 432h72v32h-72z" fill="#a5c3dc"/></g><g><path d="m192 448h48v16h-48z" fill="#d7e6f0"/></g><g><path d="m304 488h-160v-8c0-8.837 7.163-16 16-16h128c8.837 0 16 7.163 16 16z" fill="#d7e6f0"/></g><g><path d="m304 488h-48v-8c0-8.837 7.163-16 16-16h16c8.837 0 16 7.163 16 16z" fill="#a5c3dc"/></g></g><g><g><path d="m112 324c-3.071 0-6.142-1.172-8.485-3.515l-40-40c-4.686-4.687-4.686-12.284 0-16.971l40-40c4.687-4.686 12.284-4.686 16.971 0 4.686 4.687 4.686 12.284 0 16.971l-31.515 31.515 31.515 31.515c4.686 4.687 4.686 12.284 0 16.971-2.344 2.342-5.415 3.514-8.486 3.514z" fill="#d7e6f0"/></g><g><path d="m224 324c-3.071 0-6.142-1.172-8.485-3.515-4.686-4.687-4.686-12.284 0-16.971l31.514-31.514-31.515-31.515c-4.686-4.687-4.686-12.284 0-16.971 4.687-4.686 12.284-4.686 16.971 0l40 40c4.686 4.687 4.686 12.284 0 16.971l-40 40c-2.343 2.343-5.414 3.515-8.485 3.515z" fill="#d7e6f0"/></g><g><path d="m151.996 324.003c-1.483 0-2.991-.276-4.453-.861-6.153-2.461-9.146-9.445-6.685-15.599l32-80c2.461-6.152 9.444-9.146 15.598-6.685 6.153 2.461 9.146 9.445 6.685 15.599l-32 80c-1.876 4.691-6.383 7.546-11.145 7.546z" fill="#d7e6f0"/></g></g><g><g><path d="m296 368h160c17.673 0 32-14.327 32-32v-128c0-17.673-14.327-32-32-32h-160c-17.673 0-32 14.327-32 32v128c0 17.673 14.327 32 32 32z" fill="#289bc3"/></g><g><path d="m296 368h112c17.673 0 32-14.327 32-32v-128c0-17.673-14.327-32-32-32h-112c-17.673 0-32 14.327-32 32v128c0 17.673 14.327 32 32 32z" fill="#00d2d2"/></g><g><path d="m328 176h-32v-70.98c0-44.044 35.169-80.589 79.211-81.016 44.473-.431 80.789 35.621 80.789 79.996 0 8.837-7.163 16-16 16h-.806c-8.392 0-15.194-6.803-15.194-15.194 0-26.284-20.793-48.298-47.072-48.797-26.89-.51-48.928 21.216-48.928 47.991z" fill="#ff6e91"/></g></g><g><path d="m384 240c0-18.425-15.573-33.214-34.274-31.921-15.791 1.091-28.577 13.895-29.65 29.688-.867 12.768 5.765 24.063 15.924 29.942v52.291c0 8.837 7.163 16 16 16 8.837 0 16-7.163 16-16v-52.292c9.562-5.533 16-15.865 16-27.708z" fill="#555a6e"/></g><g><path d="m472 144c-2.047 0-4.095-.781-5.657-2.343-3.125-3.125-3.125-8.189 0-11.314l16-16c3.124-3.123 8.189-3.123 11.313 0 3.125 3.125 3.125 8.189 0 11.314l-16 16c-1.561 1.562-3.609 2.343-5.656 2.343z" fill="#ff6e91"/></g><g><path d="m408 144c-2.047 0-4.095-.781-5.657-2.343l-16-16c-3.125-3.125-3.125-8.189 0-11.314 3.124-3.123 8.189-3.123 11.313 0l16 16c3.125 3.125 3.125 8.189 0 11.314-1.561 1.562-3.609 2.343-5.656 2.343z" fill="#ff6e91"/></g></g></svg>